<?xml version="1.0" encoding="UTF-8" standalone="no"?>
<!-- Created with Inkscape (http://www.inkscape.org/) -->

<svg
   width="16"
   height="16"
   viewBox="0 0 4.2333332 4.2333332"
   version="1.1"
   id="svg1092"
   inkscape:version="1.1.1 (3bf5ae0d25, 2021-09-20)"
   sodipodi:docname="itch-io.svg"
   xmlns:inkscape="http://www.inkscape.org/namespaces/inkscape"
   xmlns:sodipodi="http://sodipodi.sourceforge.net/DTD/sodipodi-0.dtd"
   xmlns="http://www.w3.org/2000/svg"
   xmlns:svg="http://www.w3.org/2000/svg">
  <sodipodi:namedview
     id="namedview1094"
     pagecolor="#ffffff"
     bordercolor="#666666"
     borderopacity="1.0"
     inkscape:pageshadow="2"
     inkscape:pageopacity="0.0"
     inkscape:pagecheckerboard="0"
     inkscape:document-units="mm"
     showgrid="false"
     width="16mm"
     units="px"
     inkscape:zoom="33.439902"
     inkscape:cx="10.945008"
     inkscape:cy="10.466538"
     inkscape:window-width="1920"
     inkscape:window-height="986"
     inkscape:window-x="-11"
     inkscape:window-y="-11"
     inkscape:window-maximized="1"
     inkscape:current-layer="layer1" />
  <defs
     id="defs1089" />
  <g
     inkscape:label="Layer 1"
     inkscape:groupmode="layer"
     id="layer1">
    <g
       id="g20"
       transform="matrix(0.00940532,0,0,0.01045298,-0.29156492,-0.55923443)">
      <path
         d="M 89.7,56.1 C 70,67.7 31.4,112.1 31,123.8 v 19.3 c 0,24.5 22.9,45.9 43.6,45.9 24.9,0 45.7,-20.7 45.7,-45.2 0,24.5 20,45.2 45,45.2 25,0 44.3,-20.7 44.3,-45.2 0,24.5 21.3,45.2 46.2,45.2 h 0.5 c 24.9,0 46.2,-20.7 46.2,-45.2 0,24.5 19.4,45.2 44.3,45.2 24.9,0 45,-20.7 45,-45.2 0,24.5 20.8,45.2 45.7,45.2 20.8,0 43.6,-21.5 43.6,-45.9 V 123.8 C 480.7,112.1 442.1,67.7 422.4,56 361.5,53.9 319.2,53.5 256.1,53.5 193,53.5 107,54.5 89.7,56.1 Z m 119.6,121.4 c -19.9,34.7 -70.4,35 -90.2,0.2 -11.9,20.9 -39,29 -50.6,25 C 64.9,239 56.1,417 84.4,446 c 72.3,16.9 273,16.4 343.2,0 28.6,-29.2 19.3,-209.7 16,-243.2 -11.7,4 -38.8,-4.2 -50.6,-25 -19.9,34.8 -70.4,34.4 -90.2,-0.2 -6.4,11.3 -20.8,26.2 -46.8,26.2 -19.2,0.5 -37.2,-9.6 -46.7,-26.3 z m -37.6,48.6 c 14.9,0 28.1,0 44.5,17.9 26.5,-2.7 53.2,-2.7 79.7,0 16.4,-17.8 29.6,-17.8 44.5,-17.8 47.3,0 58.9,70.1 75.8,130.5 15.6,56.2 -5,57.5 -30.7,57.6 -38.1,-1.4 -59.2,-29.1 -59.2,-56.7 -35.5,5.8 -92.1,7.9 -140.6,0 0,27.7 -21.1,55.3 -59.2,56.7 -25.7,-0.1 -46.3,-1.4 -30.7,-57.6 16.9,-60.5 28.6,-130.5 75.9,-130.6 z m 84.3,43.3 c 0,0 -40.1,36.8 -47.3,49.9 l 26.2,-1.1 v 22.9 c 0,1.4 19.3,0.1 21.1,0.1 10.5,0.5 21.1,0.9 21.1,-0.1 v -22.8 l 26.2,1.1 c -7.2,-13.2 -47.3,-50 -47.3,-50 z"
         id="path18" />
    </g>
  </g>
</svg>
